<svg id="Group_2_2_" xmlns="http://www.w3.org/2000/svg" viewBox="0 0 120.4 94.439">
  <defs>
    <style>
      .cls-1 {
        fill: #fcc014;
      }
    </style>
  </defs>
  <g id="_xF077__1_">
    <g id="Group_430" data-name="Group 430">
      <path id="Path_430" data-name="Path 430" class="cls-1" d="M94.6,34.3a26.513,26.513,0,0,1-6.4,17.148C84,56.828,78.3,60.915,71,64.006a59.44,59.44,0,0,1-23.7,4.586,68.4,68.4,0,0,1-11.8-1.1,60.555,60.555,0,0,1-18.7,8.674c-1.7.4-3.6.8-5.8,1.1h-.2a1.977,1.977,0,0,1-1.4-.6,1.739,1.739,0,0,1-.7-1.4c-.1-.1-.1-.2-.1-.4a.9.9,0,0,1,.1-.5.752.752,0,0,0,.1-.4l.1-.4.5-.7.4-.4.2-.2,3.4-3.589A9.512,9.512,0,0,0,14.8,66.7a17.967,17.967,0,0,1,1.7-2.492,6.934,6.934,0,0,0,1.3-2.991A38.152,38.152,0,0,1,4.8,49.45,28.265,28.265,0,0,1,0,34.3,26.575,26.575,0,0,1,6.4,17.048,42.877,42.877,0,0,1,23.6,4.586,59.439,59.439,0,0,1,47.3,0,59.439,59.439,0,0,1,71,4.586c7.2,3.091,13,7.178,17.2,12.462A26.77,26.77,0,0,1,94.6,34.3Zm25.8,17.048A26.664,26.664,0,0,1,115.6,66.5a38.072,38.072,0,0,1-13,11.764,20.718,20.718,0,0,0,1.3,2.991,13.745,13.745,0,0,0,1.7,2.492l3.3,3.988a9.046,9.046,0,0,0,1.6,1.695l.6.6.5.7.4,1.2a.752.752,0,0,1-.1.4,4,4,0,0,1-.8,1.6,1.757,1.757,0,0,1-1.6.5c-2.2-.3-4.1-.7-5.8-1.1A58.211,58.211,0,0,1,85,84.644a68.4,68.4,0,0,1-11.8,1.1c-12.1,0-22.7-2.991-31.7-8.873,2.6.2,4.5.4,5.9.4a71.185,71.185,0,0,0,20.7-2.991A60.273,60.273,0,0,0,85.9,65.6,49.412,49.412,0,0,0,98.8,51.344,33.131,33.131,0,0,0,103.3,34.4a31.816,31.816,0,0,0-1.6-10.169,38.031,38.031,0,0,1,13.7,11.864A26.237,26.237,0,0,1,120.4,51.344Z"/>
    </g>
  </g>
</svg>
