<svg id="Group_429" data-name="Group 429" xmlns="http://www.w3.org/2000/svg" viewBox="0 0 94.817 107.973">
  <defs>
    <style>
      .cls-1 {
        fill: #0057b8;
      }
    </style>
  </defs>
  <path id="Path_429" data-name="Path 429" class="cls-1" d="M71.048,20.078l-.778-.517c-3.63-2.154-7.174-3.447-10.631-5.17a40.993,40.993,0,0,1-4.581-2.585C51.773,9.651,47.279,4.481,43.562,0h0a36.394,36.394,0,0,1-1.037,5.6c0,.086-.086.172-.086.259a.266.266,0,0,0-.086.172,12.484,12.484,0,0,1-3.8,5.773c-.086.086-.259.172-.432.345-5.359,4.136-8.643,5.429-13.224,7.928a7.8,7.8,0,0,0-.778.431A50.815,50.815,0,0,0,11.15,31.28l-.173.172c-.173.172-.346.431-.519.6s-.346.431-.519.6c0,.086-.086.086-.086.172a4.781,4.781,0,0,0-.519.689c-.086.086-.173.259-.259.345-.173.259-.346.431-.519.689-.086.086-.173.259-.259.345a3.022,3.022,0,0,0-.432.689c-.086.172-.173.259-.259.431-.173.259-.259.431-.432.689-.086.086-.259.172-.346.345-.173.259-.259.431-.432.689l-.259.517a2.577,2.577,0,0,0-.346.689l-.259.517c-.086.259-.259.431-.346.689-.086.172-.173.431-.259.6-.086.259-.259.431-.346.689-.086.172-.173.431-.259.6a2.577,2.577,0,0,1-.346.689c-.086.259-.173.431-.259.689s-.173.431-.259.689a5.926,5.926,0,0,1-.259.689c-.086.259-.173.431-.259.689a1.184,1.184,0,0,0-.432.689c-.086.259-.173.431-.259.689l-.259.776a2.023,2.023,0,0,0-.173.689c-.086.259-.173.6-.259.862-.086.172-.086.431-.173.6l-.259,1.034c0,.172-.086.345-.086.517-.173.689-.259,1.206-.346,1.723A50.052,50.052,0,0,0,0,61.354a45.172,45.172,0,0,0,6.31,23.18h0a47.334,47.334,0,0,0,17.632,17.148c.086.086.173.086.346.172s.432.259.605.345h0l.519.259h0c.259.172.605.259.864.431.086.086.259.086.346.172a.085.085,0,0,1,.086.086l.519.259c.173.086.432.172.605.259a.318.318,0,0,0,.259.086c.173.086.259.172.432.172.086,0,.173.086.259.086.173.086.259.086.432.172a.3.3,0,0,1,.173.086c.086,0,.173.086.259.086.173.086.259.086.432.172a.3.3,0,0,1,.173.086c.173.086.346.086.432.172.173.086.259.086.432.172.086.086.259.086.346.172h.086c.173.086.259.086.432.172s.346.086.519.172c.346.086.691.259,1.037.345.086,0,.173.086.346.086.173.086.432.086.605.172s.432.086.605.172c.259.086.605.172.864.259.086,0,.259.086.346.086a13.463,13.463,0,0,0,1.988.431h.086a49.2,49.2,0,0,0,9.421.948c25.152,0,47.019-18.182,47.019-45.757S74.332,22.146,71.048,20.078Zm.605,78.157a22.8,22.8,0,0,1-10.977,4.395c-5.618.517-13.224.862-17.805-3.361a1.493,1.493,0,0,1,0-2.154,2.327,2.327,0,0,1,1.556-.689c.605,0,.519,0,.864.172,2.074,1.637,5.186,3.016,11.928,3.016s11.409-1.9,13.483-3.447c.951-.689,1.383-.086,1.469.345A1.941,1.941,0,0,1,71.653,98.235ZM53.329,88.757a19.3,19.3,0,0,1,4.84-3.447c1.729-.776,2.679-.6,4.408-.6,1.642,0,3.457.086,4.667.948a8.878,8.878,0,0,1,2.42,3.705,1.44,1.44,0,0,1-.864,2.068c-.691.431-.864.172-1.556-1.12-.691-1.379-1.383-2.671-5.013-2.671s-4.84,1.206-6.569,2.671-2.42,1.982-3.025,1.12C51.946,90.652,52.205,89.791,53.329,88.757Zm27.745.862C77.357,89.274,69.838,77.64,65,77.468c-6.05-.172-19.188,12.581-29.56,12.581-5.618,0-7.692-.776-9.594-1.9h0a2.627,2.627,0,0,1-.605-.431c-3.2-2.154-4.754-5.515-4.581-10.082.086-8.1,7.692-15.683,17.373-15.856,8.989-.086,15.9,6.463,21.349,9.91h0c1.988,1.293,3.8,2.154,5.445,2.068,5.186-.086,15.212-10.254,20.139-10.254,5.186,0,6.655,5.429,6.655,8.617s-1.037,9.048-3.544,12.667C85.482,88.5,83.926,89.791,81.074,89.618Z"/>
</svg>
