<svg xmlns="http://www.w3.org/2000/svg" viewBox="0 0 131 131">
  <defs>
    <style>
      .cls-1 {
        fill: #0079ff;
      }

      .cls-2 {
        fill: #fff;
      }
    </style>
  </defs>
  <g id="Group_433" data-name="Group 433" transform="translate(-788 -1013)">
    <circle id="Ellipse_4" data-name="Ellipse 4" class="cls-1" cx="65.5" cy="65.5" r="65.5" transform="translate(788 1013)"/>
    <path id="Path_235" data-name="Path 235" class="cls-2" d="M80.71,0H9.29A9.318,9.318,0,0,0,0,9.29V51.677a9.318,9.318,0,0,0,9.29,9.29H80.71A9.318,9.318,0,0,0,90,51.677V9.29A9.318,9.318,0,0,0,80.71,0ZM44.129,5.806h35.71L60.387,18.784l-2.41,1.6-2.41,1.6L45,29.032,33.271,21.194l-2.41-1.6L28.452,18,10.161,5.806H44.129ZM58.906,26.739,78.968,55.161H9.29L29.9,25.955l11.874,7.926A5.918,5.918,0,0,0,45,34.868a5.687,5.687,0,0,0,3.223-.987ZM6.939,10.626,25.084,22.7,5.806,49.994V9.639A4.621,4.621,0,0,0,6.939,10.626ZM83.7,51.823,63.726,23.516,82.974,10.684a6.818,6.818,0,0,0,.726-.552,3.963,3.963,0,0,0,.494-.494V51.677a3.6,3.6,0,0,1-.087.784A4.775,4.775,0,0,0,83.7,51.823Z" transform="translate(801.601 1064.094) rotate(-16)"/>
  </g>
</svg>
