<svg id="Group_428" data-name="Group 428" xmlns="http://www.w3.org/2000/svg" viewBox="0 0 118.3 83.151">
  <defs>
    <style>
      .cls-1 {
        fill: #37870b;
      }
    </style>
  </defs>
  <g id="Group_425" data-name="Group 425" transform="translate(0 13.907)">
    <path id="Path_426" data-name="Path 426" class="cls-1" d="M30.833,76.612a6.5,6.5,0,0,1-4.4-1.715L0,50.063,26.31,23.833a6.342,6.342,0,0,1,8.982,8.955L18.283,49.809,35.165,65.624a6.381,6.381,0,0,1-4.332,10.988Z" transform="translate(0 -21.975)"/>
  </g>
  <g id="Group_426" data-name="Group 426" transform="translate(81.141 13.967)">
    <path id="Path_427" data-name="Path 427" class="cls-1" d="M133.76,76.646a6.536,6.536,0,0,1-4.523-1.842,6.312,6.312,0,0,1,0-8.955l17.009-17.021L129.364,33.013a6.344,6.344,0,1,1,8.728-9.209l26.438,24.833-26.31,26.231A6.609,6.609,0,0,1,133.76,76.646Z" transform="translate(-127.371 -22.071)"/>
  </g>
  <g id="Group_427" data-name="Group 427" transform="translate(39.739 0)">
    <path id="Path_428" data-name="Path 428" class="cls-1" d="M68.763,83.23a6.856,6.856,0,0,1-2.23-.381,6.322,6.322,0,0,1-3.759-8.13l26.119-70.5A6.347,6.347,0,0,1,100.806,8.6L74.687,79.1A6.364,6.364,0,0,1,68.763,83.23Z" transform="translate(-62.379 -0.079)"/>
  </g>
</svg>
