<svg xmlns="http://www.w3.org/2000/svg" xmlns:xlink="http://www.w3.org/1999/xlink" viewBox="0 0 131 131">
  <defs>
    <style>
      .cls-1 {
        fill: #fff;
      }

      .cls-2 {
        clip-path: url(#clip-path);
      }

      .cls-3, .cls-4 {
        fill: #191717;
      }

      .cls-3 {
        fill-rule: evenodd;
      }
    </style>
    <clipPath id="clip-path">
      <circle id="Ellipse_4" data-name="Ellipse 4" class="cls-1" cx="65.5" cy="65.5" r="65.5" transform="translate(1195 1013)"/>
    </clipPath>
  </defs>
  <g id="Group_434" data-name="Group 434" transform="translate(-1195 -1013)">
    <circle id="Ellipse_5" data-name="Ellipse 5" class="cls-1" cx="65.5" cy="65.5" r="65.5" transform="translate(1195 1013)"/>
    <g id="Mask_Group_4" data-name="Mask Group 4" class="cls-2">
      <g id="Group_353" data-name="Group 353" transform="translate(1194 1012)">
        <path id="Path_255" data-name="Path 255" class="cls-3" d="M67.16,0A67.16,67.16,0,0,0,45.923,130.874c3.336.667,4.559-1.446,4.559-3.225,0-1.557-.111-6.894-.111-12.454-18.68,4-22.572-8.006-22.572-8.006-3-7.783-7.45-9.785-7.45-9.785-6.116-4.114.445-4.114.445-4.114,6.783.445,10.341,6.894,10.341,6.894,6,10.23,15.678,7.339,19.57,5.56.556-4.337,2.335-7.339,4.225-9.007C40.029,95.181,24.351,89.4,24.351,63.6a26.191,26.191,0,0,1,6.894-18.013c-.667-1.668-3-8.562.667-17.791,0,0,5.671-1.779,18.458,6.894a64.495,64.495,0,0,1,33.58,0c12.787-8.673,18.458-6.894,18.458-6.894,3.669,9.229,1.334,16.123.667,17.791A25.688,25.688,0,0,1,109.97,63.6c0,25.8-15.678,31.468-30.689,33.135,2.446,2.113,4.559,6.116,4.559,12.454,0,9.007-.111,16.234-.111,18.458,0,1.779,1.223,3.892,4.559,3.225A67.16,67.16,0,0,0,67.16,0Z"/>
        <path id="Path_256" data-name="Path 256" class="cls-4" d="M23.075,86.812c-.111.334-.667.445-1.112.222s-.778-.667-.556-1c.111-.334.667-.445,1.112-.222a.9.9,0,0,1,.556,1Zm-.89-.556" transform="translate(2.388 9.592)"/>
        <path id="Path_257" data-name="Path 257" class="cls-4" d="M25.476,89.6c-.334.334-1,.111-1.334-.334a1.079,1.079,0,0,1-.222-1.446c.334-.334.89-.111,1.334.334.445.556.556,1.223.222,1.446Zm-.667-.667" transform="translate(2.656 9.811)"/>
        <path id="Path_258" data-name="Path 258" class="cls-4" d="M27.879,93.126c-.445.334-1.112,0-1.446-.556-.445-.556-.445-1.334,0-1.557.445-.334,1.112,0,1.446.556a1.068,1.068,0,0,1,0,1.557Zm0,0" transform="translate(2.921 10.172)"/>
        <path id="Path_259" data-name="Path 259" class="cls-4" d="M31.236,96.518c-.334.445-1.112.334-1.779-.222-.556-.556-.778-1.334-.334-1.668.334-.445,1.112-.334,1.779.222a1.264,1.264,0,0,1,.334,1.668Zm0,0" transform="translate(3.233 10.561)"/>
        <path id="Path_260" data-name="Path 260" class="cls-4" d="M35.782,98.343c-.111.556-.89.778-1.668.556s-1.223-.89-1.112-1.334c.111-.556.89-.778,1.668-.556s1.223.778,1.112,1.334Zm0,0" transform="translate(3.692 10.848)"/>
        <path id="Path_261" data-name="Path 261" class="cls-4" d="M40.691,98.7c0,.556-.667,1-1.446,1s-1.446-.445-1.446-1,.667-1,1.446-1,1.446.445,1.446,1Zm0,0" transform="translate(4.231 10.935)"/>
        <path id="Path_262" data-name="Path 262" class="cls-4" d="M45.281,97.881c.111.556-.445,1.112-1.223,1.223s-1.446-.222-1.557-.778.445-1.112,1.223-1.223,1.446.222,1.557.778Zm0,0" transform="translate(4.756 10.866)"/>
      </g>
    </g>
  </g>
</svg>
