<svg xmlns="http://www.w3.org/2000/svg" viewBox="0 0 109.3 109">
  <defs>
    <style>
      .cls-1 {
        fill: #fff;
      }

      .cls-2 {
        fill: #002e5d;
      }
    </style>
  </defs>
  <g id="Group_442" data-name="Group 442" transform="translate(-750.7 -577)">
    <circle id="Ellipse_6" data-name="Ellipse 6" class="cls-1" cx="54.5" cy="54.5" r="54.5" transform="translate(751 577)"/>
    <path id="Path_363" data-name="Path 363" class="cls-2" d="M189.2,122a54.5,54.5,0,1,0,54.5,54.5A54.5,54.5,0,0,0,189.2,122Zm27.5,40.6-8.4,12.9a7.712,7.712,0,0,0-.6,6.3l5.9,14.2c.8,1.8-.2,2.9-2.1,2.4l-14.9-3.9a7.346,7.346,0,0,0-6.1,1.4l-11.7,10c-1.5,1.3-2.8.7-2.9-1.2l-.8-15.4a7.632,7.632,0,0,0-3.2-5.4l-13.1-8c-1.7-1-1.5-2.4.3-3.1l14.4-5.5a7.316,7.316,0,0,0,4.1-4.8l3.6-15c.5-1.9,1.8-2.2,3.1-.7l9.7,11.9a7.779,7.779,0,0,0,5.8,2.5l15.3-1.2C217,159.7,217.8,161,216.7,162.6Z" transform="translate(616 455)"/>
  </g>
</svg>
