<svg xmlns="http://www.w3.org/2000/svg" viewBox="0 0 109.1 109">
  <defs>
    <style>
      .cls-1 {
        fill: #002e5d;
      }

      .cls-2 {
        fill: #afd6fe;
      }
    </style>
  </defs>
  <g id="Group_448" data-name="Group 448" transform="translate(-443.9 -1333)">
    <circle id="Ellipse_6" data-name="Ellipse 6" class="cls-1" cx="54.5" cy="54.5" r="54.5" transform="translate(444 1333)"/>
    <g id="Group_423" data-name="Group 423" transform="translate(174 1333)">
      <path id="Path_344" data-name="Path 344" class="cls-2" d="M324.4,0a54.5,54.5,0,1,0,54.5,54.5A54.5,54.5,0,0,0,324.4,0ZM307.5,65.8a4.439,4.439,0,0,1,.2,6.3,4.706,4.706,0,0,1-3.3,1.4,4.653,4.653,0,0,1-3.1-1.2L282.7,54.8l18.5-18.5a4.455,4.455,0,0,1,6.3,6.3l-12,12Zm30.3-34.6L319.4,81a4.517,4.517,0,0,1-4.2,2.9,4.973,4.973,0,0,1-1.6-.3,4.608,4.608,0,0,1-2.7-5.8L329.3,28a4.541,4.541,0,1,1,8.5,3.2Zm9.7,41.1a4.49,4.49,0,0,1-6.4-6.3l12-12L341.2,42.8a4.457,4.457,0,1,1,6.1-6.5l18.6,17.5Z"/>
    </g>
  </g>
</svg>
