<svg xmlns="http://www.w3.org/2000/svg" viewBox="0 0 109.3 109.3">
  <defs>
    <style>
      .cls-1 {
        fill: #fff;
      }

      .cls-2 {
        fill: #002e5d;
      }
    </style>
  </defs>
  <g id="Group_441" data-name="Group 441" transform="translate(-443 -577)">
    <circle id="Ellipse_6" data-name="Ellipse 6" class="cls-1" cx="54.5" cy="54.5" r="54.5" transform="translate(443 577)"/>
    <g id="Group_417" data-name="Group 417" transform="translate(308 333)">
      <path id="Path_345" data-name="Path 345" class="cls-2" d="M189.8,244.3a54.5,54.5,0,1,0,54.5,54.5A54.5,54.5,0,0,0,189.8,244.3Zm-22.3,65.9-3.5,3.5L151.2,301,164,288.2l3.5,3.5-9.2,9.2Zm41.9-26.5h-3.3l-10.9,20.1v12.1h3.6v8.2H180.2v-8.2h3.6V303.8L173,283.7h-3.3v-8.1h17v7.9h-2.9l5.7,11.5,5.7-11.5h-2.9v-7.9h17v8.1Zm6.1,30.1-3.5-3.5,9.2-9.2-9.2-9.2,3.5-3.5,12.8,12.8Z"/>
    </g>
  </g>
</svg>
