<svg xmlns="http://www.w3.org/2000/svg" viewBox="0 0 109.7 109">
  <defs>
    <style>
      .cls-1 {
        fill: #fff;
      }

      .cls-2 {
        fill: #002e5d;
      }
    </style>
  </defs>
  <g id="Group_443" data-name="Group 443" transform="translate(-1060 -577)">
    <circle id="Ellipse_6" data-name="Ellipse 6" class="cls-1" cx="54.5" cy="54.5" r="54.5" transform="translate(1060 577)"/>
    <g id="Group_418" data-name="Group 418" transform="translate(926 577)">
      <path id="Path_351" data-name="Path 351" class="cls-2" d="M208.9,74.2H166.5c-1.4,0-2.5.5-2.5,1,0,.6,1.1,1,2.5,1h42.4c1.4,0,2.5-.5,2.5-1S210.3,74.2,208.9,74.2Z"/>
      <path id="Path_352" data-name="Path 352" class="cls-2" d="M208.9,78.4H166.5c-1.4,0-2.5.5-2.5,1,0,.6,1.1,1,2.5,1h42.4c1.4,0,2.5-.5,2.5-1C211.4,78.8,210.3,78.4,208.9,78.4Z"/>
      <path id="Path_353" data-name="Path 353" class="cls-2" d="M166.7,70.6h22a2.507,2.507,0,1,0,0-5h-22a2.507,2.507,0,1,0,0,5Z"/>
      <path id="Path_354" data-name="Path 354" class="cls-2" d="M189.2,0a54.5,54.5,0,1,0,54.5,54.5A54.5,54.5,0,0,0,189.2,0Zm30.7,61.4V82.3a3.009,3.009,0,0,1-3,3H161.4a3.009,3.009,0,0,1-3-3V26.8a3.009,3.009,0,0,1,3-3H217a3.009,3.009,0,0,1,3,3V61.4Z"/>
      <path id="Path_355" data-name="Path 355" class="cls-2" d="M217,26.5H161.5a.265.265,0,0,0-.3.3V61.4a.265.265,0,0,0,.3.3H217a.265.265,0,0,0,.3-.3V26.8A.319.319,0,0,0,217,26.5ZM200.7,57.8H170c-1.1,0-1.5-.8-1-1.7l5.5-9a1.455,1.455,0,0,1,2.4-.2l3.1,3.4a1.554,1.554,0,0,0,2.5-.2l5.4-8.1a1.319,1.319,0,0,1,2.3-.1l11.2,14.3C202.2,57.1,201.8,57.8,200.7,57.8Zm.5-16.6a5.1,5.1,0,1,1,5.1-5.1A5.058,5.058,0,0,1,201.2,41.2Z"/>
    </g>
  </g>
</svg>
