<svg xmlns="http://www.w3.org/2000/svg" viewBox="0 0 109 109">
  <defs>
    <style>
      .cls-1 {
        fill: #002e5d;
      }

      .cls-2 {
        fill: #afd6fe;
      }
    </style>
  </defs>
  <g id="Group_447" data-name="Group 447" transform="translate(-752 -1333)">
    <circle id="Ellipse_6" data-name="Ellipse 6" class="cls-1" cx="54.5" cy="54.5" r="54.5" transform="translate(752 1333)"/>
    <g id="Group_420" data-name="Group 420" transform="translate(752 1333)">
      <g id="Group_411" data-name="Group 411">
        <path id="Path_346" data-name="Path 346" class="cls-2" d="M64.8,71.5a.99.99,0,0,0-.7,1.7,1.08,1.08,0,0,0,.7.3.908.908,0,0,0,.7-.3,1.08,1.08,0,0,0,.3-.7.908.908,0,0,0-.3-.7A.779.779,0,0,0,64.8,71.5Zm.5,1.2c0,.1.1.1.1.2v.3h-.2V73c0-.2,0-.3-.1-.3h-.5v.5h-.2V71.9h.9c.1.1.2.2.2.3a.367.367,0,0,1-.1.3.349.349,0,0,1-.2.1Z"/>
        <path id="Path_347" data-name="Path 347" class="cls-2" d="M32.2,53.3c.3-.3.5-.8.5-2.1s-.2-1.8-.4-2-.5-.3-1.2-.3H26.9v4.7h4.2C31.7,53.5,32,53.5,32.2,53.3Z"/>
        <path id="Path_348" data-name="Path 348" class="cls-2" d="M64.8,72h-.2v.5H65c.1,0,.1-.1.1-.2s0-.2-.1-.2C65,72,64.9,72,64.8,72Z"/>
        <path id="Path_349" data-name="Path 349" class="cls-2" d="M31.2,58.5H26.9v5.3h4.3c.7,0,1-.1,1.2-.3.3-.3.5-.5.5-2.3,0-1.7-.1-2-.5-2.3C32.2,58.6,31.9,58.5,31.2,58.5Z"/>
        <path id="Path_350" data-name="Path 350" class="cls-2" d="M54.5,0A54.5,54.5,0,1,0,109,54.5,54.5,54.5,0,0,0,54.5,0ZM39,67.9c-1.1,1.1-2.5,1.5-4.6,1.5H17.2V63.5h2.1V49H17.2V43.1H34.5c2.3,0,3.5.4,4.5,1.4a7.009,7.009,0,0,1,1.7,5.1c0,4-1.4,5.6-4.1,6.3V56c2.9.7,4.4,2.1,4.4,6.3C40.9,65,40.2,66.7,39,67.9Zm26.7,5.5a1.268,1.268,0,0,1-.9.4,1.222,1.222,0,0,1-.9-.4,1.268,1.268,0,0,1-.4-.9,1.222,1.222,0,0,1,.4-.9,1.268,1.268,0,0,1,.9-.4,1.222,1.222,0,0,1,.9.4,1.268,1.268,0,0,1,.4.9A2.471,2.471,0,0,1,65.7,73.4ZM58.9,57.7v9.7h2.9V74h-15V67.4h2.9V57.7L40.9,41.5H38.3V35H52v6.4H49.7l4.6,9.3,4.6-9.3H56.6V35H70.3v6.5H67.7ZM91.6,49v9.9c0,5.8-.6,7.6-2.1,9-1.2,1.2-2.7,1.5-6.1,1.5H77.6c-3.4,0-4.9-.3-6.1-1.5-1.4-1.4-2.1-3.2-2.1-9V49H68V43.1H79.1V49H77.2V59.6c0,2.4.1,3.2.5,3.5.3.3,1,.4,2.3.4h1.3c1.3,0,2-.1,2.3-.4s.4-1.1.4-3.5V49H82.1V43.1H93.6V49Z"/>
      </g>
    </g>
  </g>
</svg>
