<svg xmlns="http://www.w3.org/2000/svg" viewBox="0 0 109.1 109">
  <defs>
    <style>
      .cls-1 {
        fill: #002e5d;
      }

      .cls-2 {
        fill: #afd6fe;
      }
    </style>
  </defs>
  <g id="Group_445" data-name="Group 445" transform="translate(-1367.9 -1333)">
    <circle id="Ellipse_6" data-name="Ellipse 6" class="cls-1" cx="54.5" cy="54.5" r="54.5" transform="translate(1368 1333)"/>
    <g id="Group_421" data-name="Group 421" transform="translate(1098 1089)">
      <path id="Path_358" data-name="Path 358" class="cls-2" d="M298,320.1h53.2V277H298Zm41-37a6.1,6.1,0,0,1,0,12.2,6.19,6.19,0,0,1-6.1-6.1A6.06,6.06,0,0,1,339,283.1Zm-34.7,28.1,10-21.9c.6-1.4,1-2.1,2.5-2.1,1.6,0,1.9.7,2.6,2.1l4.9,8.3,2.1-2.1a1.612,1.612,0,0,1,1.3-.6h.3a1.7,1.7,0,0,1,1.3,1l7.3,15.2a2.92,2.92,0,0,1,.2.9,1.93,1.93,0,0,1-.3,1,2.055,2.055,0,0,1-1.8.8H306a2.5,2.5,0,0,1-1.8-.8,1.929,1.929,0,0,1-.3-1A2.993,2.993,0,0,0,304.3,311.2Z"/>
      <path id="Path_359" data-name="Path 359" class="cls-2" d="M324.4,244a54.5,54.5,0,1,0,54.5,54.5A54.5,54.5,0,0,0,324.4,244Zm33,78.1a4.3,4.3,0,0,1-4,4H296c-1.1,0-4.1-2-4.1-4V275a4.317,4.317,0,0,1,4.1-4h57.4a4.4,4.4,0,0,1,4.1,4v47.1Z"/>
    </g>
  </g>
</svg>
