<svg xmlns="http://www.w3.org/2000/svg" viewBox="0 0 131 131">
  <defs>
    <style>
      .cls-1 {
        fill: #65dc00;
      }

      .cls-2 {
        fill: #fff;
      }
    </style>
  </defs>
  <g id="Group_432" data-name="Group 432" transform="translate(-380 -785)">
    <circle id="Ellipse_4" data-name="Ellipse 4" class="cls-1" cx="65.5" cy="65.5" r="65.5" transform="translate(380 785)"/>
    <g id="Slack_Mark_Monochrome_Black" transform="translate(324.75 732.35)">
      <g id="Group_352" data-name="Group 352" transform="translate(74.757 73.157)">
        <rect id="Rectangle_101" data-name="Rectangle 101" class="cls-2" width="12.802" height="12.366" transform="matrix(0.948, -0.318, 0.318, 0.948, 37.459, 41.733)"/>
        <g id="Group_351" data-name="Group 351">
          <rect id="Rectangle_102" data-name="Rectangle 102" class="cls-2" width="12.802" height="12.366" transform="matrix(0.948, -0.318, 0.318, 0.948, 37.459, 41.733)"/>
          <path id="Path_263" data-name="Path 263" class="cls-2" d="M161.929,106.139c-9.383-31.278-22.913-38.551-54.19-29.168s-38.551,22.913-29.168,54.19,22.913,38.551,54.19,29.168S171.312,137.416,161.929,106.139Zm-15.784,20.294-5.892,1.964,2.037,6.11a4.722,4.722,0,0,1-2.982,5.965,4.061,4.061,0,0,1-1.6.218,4.854,4.854,0,0,1-4.364-3.2l-2.037-6.11-12.147,4.073,2.037,6.11a4.722,4.722,0,0,1-2.982,5.965,4.062,4.062,0,0,1-1.6.218,4.854,4.854,0,0,1-4.364-3.2l-2.037-6.11L104.32,140.4a4.061,4.061,0,0,1-1.6.218,4.854,4.854,0,0,1-4.364-3.2,4.722,4.722,0,0,1,2.982-5.965l5.892-1.964L103.3,117.777l-5.892,1.964a4.061,4.061,0,0,1-1.6.218,4.854,4.854,0,0,1-4.364-3.2,4.722,4.722,0,0,1,2.982-5.965l5.892-1.964-2.037-6.11a4.715,4.715,0,0,1,8.947-2.982l2.037,6.11,12.147-4.073-2.037-6.11a4.715,4.715,0,0,1,8.947-2.982l2.037,6.11,5.892-1.964a4.715,4.715,0,0,1,2.982,8.947l-5.892,1.964,3.928,11.711,5.892-1.964a4.715,4.715,0,0,1,2.982,8.947Z" transform="translate(-74.757 -73.157)"/>
        </g>
      </g>
    </g>
  </g>
</svg>
