<svg id="W_Mark_1_" xmlns="http://www.w3.org/2000/svg" viewBox="0 0 107 106.677">
  <defs>
    <style>
      .cls-1 {
        fill: #002e5d;
      }
    </style>
  </defs>
  <path id="Path_364" data-name="Path 364" class="cls-1" d="M53.5,3.2A50.393,50.393,0,0,1,95.218,25.317a50.9,50.9,0,0,1,4.639,8.514,50.241,50.241,0,0,1,0,39.048A50.517,50.517,0,0,1,81.622,94.947a51.148,51.148,0,0,1-8.539,4.625,50.428,50.428,0,0,1-61.3-18.18,50.9,50.9,0,0,1-4.639-8.514A50.218,50.218,0,0,1,25.394,11.746a51.147,51.147,0,0,1,8.539-4.625A50.428,50.428,0,0,1,53.5,3.2m0-3.2A53.339,53.339,0,1,0,107,53.338,53.415,53.415,0,0,0,53.5,0Z"/>
  <path id="Path_365" data-name="Path 365" class="cls-1" d="M55.6,100.041a44.449,44.449,0,0,0,25.137,40.008L59.468,81.957A43.929,43.929,0,0,0,55.6,100.041Zm74.688-2.24a23.327,23.327,0,0,0-3.676-12.258c-2.263-3.665-4.382-6.769-4.382-10.418a7.713,7.713,0,0,1,7.48-7.89c.193,0,.385.016.578.032a44.673,44.673,0,0,0-67.369,8.37c1.043.032,2.039.048,2.873.048,4.655,0,11.878-.56,11.878-.56a1.838,1.838,0,0,1,.289,3.665s-2.424.288-5.1.416L89.1,127.358l9.759-29.174L91.909,79.2c-2.408-.144-4.671-.416-4.671-.416-2.408-.144-2.119-3.809.289-3.665,0,0,7.368.56,11.75.56,4.655,0,11.878-.56,11.878-.56a1.838,1.838,0,0,1,.289,3.665s-2.424.288-5.1.416l16.1,47.785,4.607-14.531C129.084,106.106,130.288,101.609,130.288,97.8Zm-29.326,6.129-13.387,38.76a44.826,44.826,0,0,0,27.4-.7c-.112-.192-.225-.4-.321-.608Zm38.347-25.2a33.689,33.689,0,0,1,.3,4.577,41.97,41.97,0,0,1-3.387,15.923L122.6,138.464a44.376,44.376,0,0,0,16.71-59.74Z" transform="translate(-46.675 -46.702)"/>
</svg>
